<?xml version="1.0" encoding="utf-8"?>
<!-- Generator: Adobe Illustrator 15.1.0, SVG Export Plug-In . SVG Version: 6.00 Build 0)  -->
<!DOCTYPE svg PUBLIC "-//W3C//DTD SVG 1.1//EN" "http://www.w3.org/Graphics/SVG/1.1/DTD/svg11.dtd">
<svg version="1.1" xmlns="http://www.w3.org/2000/svg" xmlns:xlink="http://www.w3.org/1999/xlink" x="0px" y="0px"  viewBox="0 0 250 250" enable-background="new 0 0 250 250" xml:space="preserve">
<g id="Layer_2">
	<g>
		<path stroke="#000000" stroke-width="4" stroke-miterlimit="10" d="M233.343,98c0,2.547-5.813,5-12.985,5H29.911
			c-7.171,0-12.984-2.453-12.984-5l0,0c0-2.547,5.813-5,12.984-5h190.446C227.529,93,233.343,95.453,233.343,98L233.343,98z"/>
	</g>
	<g>
		<path stroke="#000000" stroke-width="4" stroke-miterlimit="10" d="M233.343,201c0,2.547-5.813,5-12.985,5H29.911
			c-7.171,0-12.984-2.453-12.984-5l0,0c0-2.547,5.813-5,12.984-5h190.446C227.529,196,233.343,198.453,233.343,201L233.343,201z"/>
	</g>
	<g>
		<path stroke="#000000" stroke-width="4" stroke-miterlimit="10" d="M233.343,56c0,2.547-5.813,5-12.985,5H29.911
			c-7.171,0-12.984-2.453-12.984-5l0,0c0-2.547,5.813-5,12.984-5h190.446C227.529,51,233.343,53.453,233.343,56L233.343,56z"/>
	</g>
	<g>
		<path stroke="#000000" stroke-width="4" stroke-miterlimit="10" d="M233.343,239c0,2.547-5.813,5-12.985,5H29.911
			c-7.171,0-12.984-2.453-12.984-5l0,0c0-2.547,5.813-5,12.984-5h190.446C227.529,234,233.343,236.453,233.343,239L233.343,239z"/>
	</g>
	<text transform="matrix(1 0 0 1 22.084 174.4004)" font-family:Sans,Arial  font-size="70">MENU</text>
</g>
<g id="Layer_3">
</g>
</svg>
